# xmcd
#
# Track frame offsets: 
#        150
#        12876
#        26364
#        29247
#        31842
#        34755
#        37964
#        40087
#        43052
#        46029
#        49765
#        68240
#        88793
#        113401
#        137455
#        140438
#        143229
#        146012
#        150551
#        153659
#        157520
#        163835
#        167331
#        186780
#        200853
#        224653
#        234258
#        239936
#        272972
#        312726
#
# Disc length: 4401 seconds
#
# Revision: 8
# Processed by: cddbd v1.5.2PL0 Copyright (c) Steve Scherf et al.
# Submitted via: ExactAudioCopy v1.0b3
#
DISCID=a7112f1e
DTITLE=Various Artist - Beethoven Edition cd 61 - Piano Works 4-Hands
DTITLE=Piano Sonata in D  WoO 47  No.3
DYEAR=2007
DGENRE=Piano
TTITLE0=Zabel, Frank and Stefan Thomas - Sonata for piano 4-Hands in D m
TTITLE0=ajor Op.6 - I. Allegro molto
TTITLE1=Zabel, Frank and Stefan Thomas - Sonata for piano 4-Hands in D m
TTITLE1=ajor Op.6 - II. Rondo
TTITLE2=Zabel, Frank and Stefan Thomas - 8 Variations on a theme by Coun
TTITLE2=t Waldstein in C major for piano 4-Hands WoO 67 - Thema
TTITLE3=Zabel, Frank and Stefan Thomas - 8 Variations on a theme by Coun
TTITLE3=t Waldstein in C major for piano 4-Hands WoO 67 - Var.1
TTITLE4=Zabel, Frank and Stefan Thomas - 8 Variations on a theme by Coun
TTITLE4=t Waldstein in C major for piano 4-Hands WoO 67 - Var.2
TTITLE5=Zabel, Frank and Stefan Thomas - 8 Variations on a theme by Coun
TTITLE5=t Waldstein in C major for piano 4-Hands WoO 67 - Var.3
TTITLE6=Zabel, Frank and Stefan Thomas - 8 Variations on a theme by Coun
TTITLE6=t Waldstein in C major for piano 4-Hands WoO 67 - Var.4
TTITLE7=Zabel, Frank and Stefan Thomas - 8 Variations on a theme by Coun
TTITLE7=t Waldstein in C major for piano 4-Hands WoO 67 - Var.5
TTITLE8=Zabel, Frank and Stefan Thomas - 8 Variations on a theme by Coun
TTITLE8=t Waldstein in C major for piano 4-Hands WoO 67 - Var.6
TTITLE9=Zabel, Frank and Stefan Thomas - 8 Variations on a theme by Coun
TTITLE9=t Waldstein in C major for piano 4-Hands WoO 67 - Var.7
TTITLE10=Zabel, Frank and Stefan Thomas - 8 Variations on a theme by Cou
TTITLE10=nt Waldstein in C major for piano 4-Hands WoO 67 - Var.8
TTITLE11=Zabel, Frank and Stefan Thomas - 3 Marches for piano 4-Hands Op
TTITLE11=45 - No.1 in C major - Allegro ma non troppo
TTITLE12=Zabel, Frank and Stefan Thomas - 3 Marches for piano 4-Hands Op
TTITLE12=45 - No.2 in E flat major - Vivace
TTITLE13=Zabel, Frank and Stefan Thomas - 3 Marches for piano 4-Hands Op
TTITLE13=45 - No.3 in D major - Vivace
TTITLE14=Zabel, Frank and Stefan Thomas - 6 Variations on ''Ich denke de
TTITLE14=in'' in D major for piano 4-Hands WoO 74 - Thema
TTITLE15=Zabel, Frank and Stefan Thomas - 6 Variations on ''Ich denke de
TTITLE15=in'' in D major for piano 4-Hands WoO 74 - Var.1
TTITLE16=Zabel, Frank and Stefan Thomas - 6 Variations on ''Ich denke de
TTITLE16=in'' in D major for piano 4-Hands WoO 74 - Var.2
TTITLE17=Zabel, Frank and Stefan Thomas - 6 Variations on ''Ich denke de
TTITLE17=in'' in D major for piano 4-Hands WoO 74 - Var.3
TTITLE18=Zabel, Frank and Stefan Thomas - 6 Variations on ''Ich denke de
TTITLE18=in'' in D major for piano 4-Hands WoO 74 - Var.4
TTITLE19=Zabel, Frank and Stefan Thomas - 6 Variations on ''Ich denke de
TTITLE19=in'' in D major for piano 4-Hands WoO 74 - Var.5
TTITLE20=Zabel, Frank and Stefan Thomas - 6 Variations on ''Ich denke de
TTITLE20=in'' in D major for piano 4-Hands WoO 74 - Var.6
TTITLE21=Zabel, Frank and Stefan Thomas - Grosse Fuge Op.134  (of the Gr
TTITLE21=osse Fuge for String Quartet Op.133) - I. Overtura, allegro
TTITLE22=Zabel, Frank and Stefan Thomas - Grosse Fuge Op.134  (of the Gr
TTITLE22=osse Fuge for String Quartet Op.133) - II. Fuga, allegro
TTITLE23=Zabel, Frank and Stefan Thomas - Grosse Fuge Op.134  (of the Gr
TTITLE23=osse Fuge for String Quartet Op.133) - III. Meno mosso e mode
TTITLE23=rato
TTITLE24=Zabel, Frank and Stefan Thomas - Grosse Fuge Op.134  (of the Gr
TTITLE24=osse Fuge for String Quartet Op.133) - IV. Allegro
TTITLE25=Zabel, Frank and Stefan Thomas - Grosse Fuge Op.134  (of the Gr
TTITLE25=osse Fuge for String Quartet Op.133) - V. Allegro molto e con
TTITLE25=brio
TTITLE26=Zabel, Frank and Stefan Thomas - Grosse Fuge Op.134  (of the Gr
TTITLE26=osse Fuge for String Quartet Op.133) - VI. Allegro molto e co
TTITLE26=n brio
TTITLE27=Staerk, Ulrich - Piano Sonata (Kurfürstensonate) in D major W
TTITLE27=oO 47  No.3 - I. Allegro
TTITLE28=Staerk, Ulrich - Piano Sonata (Kurfürstensonate) in D major W
TTITLE28=oO 47  No.3 - II. Menuetto
TTITLE29=Staerk, Ulrich - Piano Sonata (Kurfürstensonate) in D major W
TTITLE29=oO 47  No.3 - III. Scherzando
EXTD=YEAR: 2007
EXTT0=
EXTT1=
EXTT2=
EXTT3=
EXTT4=
EXTT5=
EXTT6=
EXTT7=
EXTT8=
EXTT9=
EXTT10=
EXTT11=
EXTT12=
EXTT13=
EXTT14=
EXTT15=
EXTT16=
EXTT17=
EXTT18=
EXTT19=
EXTT20=
EXTT21=
EXTT22=
EXTT23=
EXTT24=
EXTT25=
EXTT26=
EXTT27=
EXTT28=
EXTT29=
PLAYORDER=
